<?xml version="1.0" encoding="UTF-8" standalone="no"?>
<svg xmlns="http://www.w3.org/2000/svg" width="248" height="200">
<path stroke="none" d="m 247.12529,105.37221 q 0,50.32992 -21.7718,72.47892 Q 203.58156,200 147.59653,200 l -75.777513,0 0,-131.19701 31.668243,0 0,97.26675 43.73234,0 q 37.88875,0 53.0631,-13.00657 15.17435,-13.0067 15.17435,-48.8219 l 0,-104.24127 31.66824,0 0,105.37221 z m -71.81901,25.8248 -31.66825,0 0,-35.43828 q 0,-35.81534 -15.17435,-48.8219 Q 113.28934,33.93026 75.400578,33.93026 l -43.732335,0 0,166.06974 L 0,200 0,0 75.777514,0 q 53.345946,0 76.437416,20.73509 23.09135,20.73523 23.09135,73.89257 l 0,36.56935 z" />
</svg>